<svg width="21" height="19" viewBox="0 0 21 19" fill="none" xmlns="http://www.w3.org/2000/svg">
<path fill-rule="evenodd" clip-rule="evenodd" d="M13.3118 0.82954C13.7843 0.743854 14.3136 0.715292 14.8121 0.804918C15.7002 0.963751 16.5231 1.40042 17.1748 2.05869C17.5989 2.06854 18.0166 1.9799 18.3859 1.85383C18.7428 1.73059 19.0854 1.56506 19.4072 1.3604L19.4156 1.35449C19.5495 1.25999 19.7102 1.21745 19.8704 1.23406C20.0306 1.25067 20.1804 1.32542 20.2945 1.44564C20.4086 1.56585 20.4799 1.72414 20.4963 1.89367C20.5128 2.06321 20.4734 2.23355 20.3848 2.37583C20.1922 2.68607 19.9234 3.23958 19.623 3.86006L19.4788 4.15652C19.3067 4.51108 19.13 4.86958 18.9654 5.17687C18.8621 5.36991 18.7514 5.5659 18.6398 5.73531V6.00517C18.6512 7.61906 18.359 9.21919 17.7801 10.7122C17.2012 12.2052 16.3472 13.5612 15.2681 14.701C14.1889 15.8408 12.9062 16.7416 11.4947 17.3508C10.0832 17.9601 8.57127 18.2655 7.04709 18.2494C4.83835 18.2515 2.67609 17.5777 0.820533 16.3091C0.687358 16.2185 0.587241 16.0827 0.536626 15.9239C0.486011 15.7651 0.487906 15.5928 0.542002 15.4353C0.596097 15.2777 0.699176 15.1444 0.834308 15.0571C0.969439 14.9698 1.12859 14.9338 1.28562 14.9549C2.56727 15.1171 3.86626 14.8982 5.03699 14.3226C4.4658 14.0477 3.95495 13.6498 3.53697 13.1543C3.11899 12.6588 2.80304 12.0766 2.60925 11.4447C2.57232 11.3238 2.56551 11.1948 2.58946 11.0702C2.61341 10.9456 2.66733 10.8297 2.74598 10.7337L2.75529 10.7238C2.28323 10.2785 1.90489 9.73307 1.64481 9.12292C1.38473 8.51277 1.24872 7.85153 1.24562 7.18212V7.1309C1.24555 6.96874 1.29588 6.81107 1.38884 6.6822C1.4818 6.55333 1.61223 6.46043 1.76 6.41784C1.44503 5.75238 1.2816 5.01807 1.28283 4.27372C1.2823 3.42983 1.49077 2.60055 1.88744 1.8686C1.94379 1.7647 2.02318 1.67687 2.11874 1.6127C2.2143 1.54852 2.32317 1.50992 2.43596 1.50022C2.54875 1.49053 2.66207 1.51003 2.76616 1.55705C2.87024 1.60407 2.96196 1.6772 3.03341 1.77012C4.66045 3.8925 6.99145 5.277 9.55017 5.64076C9.52796 4.75453 9.7391 3.87925 10.16 3.11286C10.5809 2.34647 11.1949 1.71922 11.9333 1.30131C12.3072 1.09054 12.802 0.92212 13.3118 0.82954ZM2.81947 8.26353C3.00009 8.8018 3.30961 9.28119 3.71772 9.65478C4.12583 10.0284 4.61856 10.2834 5.14768 10.3948C5.30013 10.427 5.43806 10.5121 5.5396 10.6368C5.64113 10.7614 5.70046 10.9183 5.70815 11.0827C5.71584 11.2471 5.67147 11.4095 5.58206 11.5441C5.49266 11.6788 5.36335 11.7779 5.21465 11.8259C4.96165 11.9076 4.70213 11.9638 4.43889 11.9963C4.72468 12.3866 5.08942 12.7042 5.50631 12.9258C5.9232 13.1474 6.38166 13.2673 6.84803 13.2767C6.99189 13.2795 7.13139 13.3294 7.24742 13.4195C7.36345 13.5096 7.45033 13.6355 7.49617 13.7799C7.542 13.9243 7.54454 14.0802 7.50345 14.2262C7.46235 14.3722 7.37963 14.5011 7.26661 14.5954C6.29667 15.4035 5.16951 15.9737 3.96637 16.2648C4.96245 16.6024 6.00215 16.7735 7.04802 16.772H7.05639C8.39592 16.7871 9.72486 16.5194 10.9656 15.9845C12.2063 15.4496 13.3338 14.6582 14.2824 13.6566C15.2309 12.655 15.9814 11.4632 16.49 10.151C16.9986 8.8388 17.2551 7.43241 17.2445 6.01403V5.48711C17.2444 5.30775 17.3059 5.13447 17.4175 4.99959C17.4827 4.92178 17.5943 4.74253 17.7524 4.44805C17.9012 4.17031 18.0668 3.83544 18.2389 3.48186L18.2696 3.41686C17.7837 3.53264 17.2834 3.5649 16.7878 3.5124C16.6203 3.49307 16.465 3.41015 16.3506 3.27898C15.8829 2.74189 15.2599 2.3844 14.5796 2.26256C14.2365 2.21117 13.8877 2.21949 13.5471 2.28719C13.2151 2.3419 12.8928 2.44914 12.5909 2.60531C11.9823 2.94963 11.4988 3.49814 11.2163 4.16478C10.9338 4.83143 10.8683 5.5785 11.0301 6.28882C11.0555 6.40051 11.056 6.51695 11.0315 6.62889C11.007 6.74082 10.9582 6.84516 10.8889 6.93361C10.8197 7.02206 10.7319 7.09218 10.6325 7.1384C10.5332 7.18462 10.425 7.20566 10.3166 7.19985C7.45877 7.04679 4.75688 5.77346 2.73668 3.62763C2.69743 3.84081 2.67781 4.05751 2.67808 4.27471V4.27668C2.67704 4.8191 2.80269 5.35339 3.04385 5.83195C3.28501 6.31052 3.6342 6.71851 4.06031 7.01961C4.18545 7.10879 4.27991 7.2385 4.32955 7.38931C4.37919 7.54013 4.38133 7.70391 4.33565 7.85612C4.28997 8.00833 4.19892 8.14077 4.07617 8.23357C3.95341 8.32638 3.80556 8.37456 3.65476 8.37089C3.37404 8.36265 3.09468 8.32638 2.8204 8.26255" fill="white"/>
</svg>
