<svg width="23" height="21" viewBox="0 0 23 21" fill="none" xmlns="http://www.w3.org/2000/svg">
<path d="M7.02176 0.5H16.1522C19.6305 0.5 22.4565 3.1 22.4565 6.3V14.7C22.4565 16.2383 21.7923 17.7135 20.61 18.8012C19.4277 19.8889 17.8242 20.5 16.1522 20.5H7.02176C3.54349 20.5 0.717407 17.9 0.717407 14.7V6.3C0.717407 4.76174 1.38161 3.28649 2.56391 2.19878C3.7462 1.11107 5.34974 0.5 7.02176 0.5ZM6.80436 2.5C5.76656 2.5 4.77126 2.87928 4.03742 3.55442C3.30359 4.22955 2.89132 5.14522 2.89132 6.1V14.9C2.89132 16.89 4.64132 18.5 6.80436 18.5H16.3696C17.4074 18.5 18.4027 18.1207 19.1365 17.4456C19.8704 16.7705 20.2826 15.8548 20.2826 14.9V6.1C20.2826 4.11 18.5326 2.5 16.3696 2.5H6.80436ZM17.2935 4C17.6538 4 17.9994 4.1317 18.2542 4.36612C18.509 4.60054 18.6522 4.91848 18.6522 5.25C18.6522 5.58152 18.509 5.89946 18.2542 6.13388C17.9994 6.3683 17.6538 6.5 17.2935 6.5C16.9331 6.5 16.5876 6.3683 16.3328 6.13388C16.0779 5.89946 15.9348 5.58152 15.9348 5.25C15.9348 4.91848 16.0779 4.60054 16.3328 4.36612C16.5876 4.1317 16.9331 4 17.2935 4ZM11.587 5.5C13.0284 5.5 14.4107 6.02678 15.4299 6.96447C16.4492 7.90215 17.0218 9.17392 17.0218 10.5C17.0218 11.8261 16.4492 13.0979 15.4299 14.0355C14.4107 14.9732 13.0284 15.5 11.587 15.5C10.1456 15.5 8.76322 14.9732 7.744 14.0355C6.72478 13.0979 6.15219 11.8261 6.15219 10.5C6.15219 9.17392 6.72478 7.90215 7.744 6.96447C8.76322 6.02678 10.1456 5.5 11.587 5.5ZM11.587 7.5C10.7221 7.5 9.89272 7.81607 9.28119 8.37868C8.66966 8.94129 8.3261 9.70435 8.3261 10.5C8.3261 11.2956 8.66966 12.0587 9.28119 12.6213C9.89272 13.1839 10.7221 13.5 11.587 13.5C12.4518 13.5 13.2812 13.1839 13.8928 12.6213C14.5043 12.0587 14.8478 11.2956 14.8478 10.5C14.8478 9.70435 14.5043 8.94129 13.8928 8.37868C13.2812 7.81607 12.4518 7.5 11.587 7.5Z" fill="white"/>
</svg>
