<svg width="25" height="25" viewBox="0 0 25 25" fill="none" xmlns="http://www.w3.org/2000/svg">
<path d="M21.3366 3.65793C19.5881 1.9108 17.3607 0.721205 14.9358 0.239584C12.511 -0.242037 9.99783 0.00594265 7.71401 0.952165C5.43018 1.89839 3.47832 3.50036 2.10524 5.5555C0.732166 7.61064 -0.000462815 10.0267 2.19348e-07 12.498C-2.00562e-07 15.8127 1.31675 18.9916 3.66075 21.336C6.00475 23.6804 9.18412 24.9983 12.4999 25C14.1406 25.0001 15.7656 24.6794 17.2833 24.0562C18.7958 23.4176 20.1718 22.4949 21.3366 21.3381C22.4981 20.1773 23.4194 18.7991 24.0479 17.2823C24.6765 15.7655 25 14.1398 25 12.498C25 10.8562 24.6765 9.23051 24.0479 7.71372C23.4194 6.19692 22.4981 4.81876 21.3366 3.65793ZM20.4555 20.4447C18.6555 22.2519 16.2936 23.3925 13.7587 23.6787V15.4238H16.1252C16.4591 15.4238 16.7792 15.2912 17.0153 15.0552C17.2514 14.8192 17.384 14.4991 17.384 14.1654C17.384 13.8316 17.2514 13.5116 17.0153 13.2756C16.7792 13.0396 16.4591 12.907 16.1252 12.907H13.7587V9.45905C13.7587 9.12531 13.8913 8.80523 14.1274 8.56924C14.3634 8.33325 14.6836 8.20067 15.0175 8.20067H16.528C16.8619 8.20067 17.1821 8.06809 17.4181 7.8321C17.6542 7.59611 17.7868 7.27604 17.7868 6.94229C17.7868 6.60855 17.6542 6.28848 17.4181 6.05249C17.1821 5.8165 16.8619 5.68392 16.528 5.68392H14.3881C13.5534 5.68392 12.753 6.01536 12.1628 6.60534C11.5726 7.19532 11.2411 7.9955 11.2411 8.82986V12.907H8.88712C8.55327 12.907 8.23309 13.0396 7.99702 13.2756C7.76094 13.5116 7.62832 13.8316 7.62832 14.1654C7.62832 14.4991 7.76094 14.8192 7.99702 15.0552C8.23309 15.2912 8.55327 15.4238 8.88712 15.4238H11.2411V23.6787C8.90335 23.4121 6.70849 22.418 4.96653 20.8369C3.22456 19.2557 2.02354 17.1675 1.53309 14.867C1.04265 12.5666 1.28757 10.1703 2.23327 8.01652C3.17898 5.86277 4.77765 4.06046 6.80349 2.86417C8.82933 1.66788 11.1799 1.13808 13.5233 1.34959C15.8667 1.5611 18.0843 2.50324 19.8631 4.04292C21.6418 5.58261 22.8917 7.64203 23.4362 9.93028C23.9807 12.2185 23.7923 14.62 22.8976 16.7954C22.3266 18.1579 21.4973 19.3971 20.4555 20.4447Z" fill="white"/>
</svg>
